PathFileType	4	(X/Y/Z)	C:/Users/beibeiliu/ov580/test_trc/User1\sequence.3_training_dense_left.trc
DataRate	CameraRate	NumFrames	NumMarkers	Units	OrigDataRate	OrigDataStartFrame	OrigNumFrames
120	120	18	19	mm	120	212	242
Frame#	Time	ThumbCMC			ThumbMCP			ThumbIP			ThumbTip			IndexMCP			IndexPIP			IndexTip			MiddleMCP			MiddlePIP			MiddleTip			RingMCP			RingPIP			RingTip			PinkyMCP			PinkyPIP			PinkyTip			BackHand1			BackHand2			BackHand3	
		X0	Y0	Z0	X1	Y1	Z1	X2	Y2	Z2	X3	Y3	Z3	X4	Y4	Z4	X5	Y5	Z5	X6	Y6	Z6	X7	Y7	Z7	X8	Y8	Z8	X9	Y9	Z9	X10	Y10	Z10	X11	Y11	Z11	X12	Y12	Z12	X13	Y13	Z13	X14	Y14	Z14	X15	Y15	Z15	X16	Y16	Z16	X17	Y17	Z17	X18	Y18	Z18	
211	1.75833	-181.967	118.072	-11.041	-153.047	139.913	-19.0052	-125.491	146.516	-29.3445	-101.083	138.316	-30.5836	-125.701	111.776	-76.0894	-97.5644	116.643	-61.7334	-108.157	118.723	-24.9869	-116.601	82.0473	-73.3896	-88.4085	96.2029	-59.3823	-98.5764	102.135	-17.9824	-107.456	63.4653	-60.9492	-83.4634	80.1219	-43.4796	-94.0089	90.4915	-12.2135	-111.946	46.4069	-45.4848	-92.1285	62.1513	-35.6194	-98.232	83.8268	-12.8234	-169.743	50.0353	-36.4388	-190.778	48.5437	-10.166	-192.047	85.8301	-32.6791	
212	1.76667	-186.958	121.203	-12.7582	-160.906	144.845	-19.2588	-132.983	147.189	-35.8737	-107.491	140.222	-39.7179	-135.435	111.629	-80.9252	-106.453	120.552	-70.9681	-113.468	123.579	-34.8405	-128.032	87.5398	-80.406	-94.9313	97.1249	-67.3102	-103.3	107.778	-29.9643	-117.48	65.8594	-69.6226	-89.8779	84.1827	-54.8248	-94.5857	92.541	-26.8328	-121.065	47.945	-51.3947	-95.3865	65.0779	-47.1938	-97.4784	82.2377	-21.3966	-171.991	49.3386	-36.092	-192.93	45.972	-8.34831	-191.468	79.7418	-30.9997	
213	1.775	-189.151	114.175	-10.7874	-164.424	143.807	-22.5075	-141.086	145.648	-41.6538	-111.662	141.387	-52.6591	-143.726	109.729	-87.0035	-116.387	122.18	-78.8998	-118.865	121.694	-44.3172	-131.822	86.9904	-88.3138	-104.685	100.741	-79.8273	-106.788	106.505	-40.3373	-124.834	65.1757	-76.6045	-96.4368	84.9736	-67.7217	-99.0242	96.3894	-38.7616	-123.712	50.1553	-59.0722	-101.323	69.3329	-56.8963	-101.328	88.2881	-29.8584	-173.89	48.0673	-37.927	-190.231	45.0182	-7.88657	-197.626	80.8826	-28.111	
214	1.78333	-191.865	114.016	-11.2239	-167.842	139.581	-28.0793	-146.712	145.231	-46.9807	-122.414	141.77	-56.3034	-156.151	108.143	-91.2333	-126.752	118.61	-86.0503	-129.912	126.218	-50.5285	-145.544	84.4821	-91.4851	-114.386	105.708	-86.5609	-115.063	113.267	-48.9139	-132.583	63.7754	-81.4883	-104.534	82.2892	-79.0547	-104.274	95.3404	-45.9181	-128.966	48.6962	-64.2021	-105.173	69.3434	-64.3801	-104.573	89.3412	-37.6966	-178.366	48.4285	-40.2173	-190.748	45.7108	-7.06589	-201.072	75.3375	-28.223	
215	1.79167	-191.216	112.228	-11.721	-171.367	138.135	-28.1073	-152.094	145.009	-49.422	-129.292	142.148	-61.3261	-168.796	102.81	-89.2564	-137.958	116.13	-93.8213	-135.097	124.584	-60.0219	-152.106	81.8096	-95.5716	-125.878	100.829	-96.2459	-119.835	113.271	-55.6425	-141.004	65.8459	-89.0244	-112.892	80.4993	-86.8736	-108.957	97.1112	-58.4831	-133.834	47.0802	-69.483	-114.276	67.0233	-74.6051	-109.025	90.3359	-49.055	-178.885	46.9905	-37.0422	-193.267	45.2615	-3.54332	-203.485	75.2709	-27.7284	
216	1.8	-193.075	111.279	-6.26558	-172.645	136.692	-30.9055	-157.378	144.865	-50.9311	-134.426	138.814	-68.8114	-177.771	102.347	-91.4774	-145.905	117.38	-96.2209	-141.354	126.439	-64.5965	-166.022	83.3763	-95.7692	-133.883	103.079	-101.047	-123.787	109.689	-62.9132	-152.937	63.0164	-87.71	-122.851	80.7241	-94.0194	-114.657	96.9451	-65.3728	-144.241	48.5187	-72.3224	-123.831	65.2421	-82.1073	-114.506	90.0476	-60.0099	-184.847	49.0783	-36.3727	-189.349	42.9111	-3.5788	-204.138	74.351	-23.2155	
217	1.80833	-194.575	115.125	-9.51431	-175.632	136.942	-31.9183	-161.972	143.723	-51.6688	-141.625	138.173	-71.5973	-185.671	101.999	-92.3794	-158.094	113.411	-102.189	-148.766	127.762	-69.8775	-172.16	81.5081	-100.188	-145.107	100.259	-106.142	-129.34	110.472	-70.9557	-159.616	62.416	-91.9514	-132.818	77.1728	-100.682	-120.601	97.0428	-72.6057	-150.584	46.3692	-70.6129	-130.14	61.0129	-87.8176	-119.062	87.0327	-66.7064	-187.137	48.1811	-34.3378	-188.651	44.3629	0.589759	-205.436	73.5532	-20.1456	
218	1.81667	-194.624	113.598	-7.81708	-178.758	135.911	-29.232	-168.332	142.643	-55.5972	-147.963	139.711	-77.0215	-193.798	98.1604	-89.3125	-167.459	110.579	-103.352	-154.88	126.666	-72.8298	-181.37	76.3026	-98.8592	-155.073	93.9311	-108.855	-137.013	108.459	-74.6428	-169.184	57.8149	-89.1609	-143.841	78.2972	-104.862	-127.136	91.4848	-82.2215	-156.575	42.1299	-69.7037	-142.185	62.5436	-89.9871	-125.756	86.6802	-74.8491	-188.67	47.2332	-30.7119	-189.312	42.1131	1.94987	-208.128	71.8921	-14.0844	
219	1.825	-194.695	113.256	-4.86297	-181.76	136.969	-29.1013	-174.521	142.957	-59.6375	-156.439	139.682	-77.88	-203.177	96.4554	-86.3687	-176.58	107.978	-104.155	-162.518	125.843	-72.5572	-191.636	74.4205	-93.8412	-165.268	89.8779	-110.702	-144.631	105.15	-79.6649	-177.706	57.0803	-91.4807	-158.082	74.3597	-106.914	-134.652	91.0991	-85.6118	-165.566	44.8072	-69.6802	-151.055	55.9408	-92.5828	-136.286	82.5581	-82.0794	-189.378	47.4869	-28.4085	-191.497	44.8868	5.27691	-208.528	72.7433	-13.1873	
220	1.83333	-195.214	116.02	-2.21614	-183.107	135.927	-29.5947	-178.201	145.27	-56.3592	-163.389	136.478	-82.3327	-209.91	94.2685	-83.2644	-186.153	108.887	-102.828	-169.535	125.005	-78.551	-202.641	74.9846	-89.486	-178.219	92.1066	-110.93	-154.947	107.431	-79.9726	-187.889	54.5179	-89.1679	-166.395	69.2007	-107.044	-145.857	87.4658	-89.0512	-171.809	40.4052	-72.5115	-161.835	54.478	-93.3577	-144.203	82.7546	-84.5389	-191.008	45.7543	-26.6791	-190.499	48.8803	6.32784	-211.517	76.1055	-9.38855	
221	1.84167	-195.529	118.02	-0.212716	-184.243	135.58	-31.6424	-182.281	142.682	-59.8127	-169.26	135.853	-86.1053	-217.158	91.9566	-78.2379	-197.066	103.965	-101.654	-176.589	122.985	-78.131	-212.03	73.5671	-87.2398	-185.769	87.9678	-108.719	-162.222	104.337	-79.0394	-198.422	55.2445	-83.1384	-177.093	68.8937	-105.245	-153.153	85.2016	-85.6641	-180.786	42.9356	-68.8346	-170.288	53.0839	-92.4702	-149.487	79.1274	-90.5009	-196.071	48.9474	-23.3431	-189.683	45.7625	14.9765	-214.531	78.2388	-5.19225	
222	1.85	-194.486	117.847	0.406532	-184.489	134.401	-32.3857	-185.465	141.985	-59.8639	-174.609	133.307	-88.3481	-225.503	94.4704	-72.6879	-207.79	104.296	-99.8715	-182.947	122.894	-82.415	-218.831	73.5286	-80.6012	-195.114	89.7136	-106.098	-168.703	102.687	-78.3359	-207.613	55.8447	-80.0578	-187.79	67.3033	-103.457	-161.938	81.4267	-86.0634	-185.065	41.9815	-61.792	-176.562	52.9126	-92.0269	-156.499	77.9639	-93.8719	-199.347	48.163	-19.3745	-191.774	50.764	15.579	-212.176	77.6943	1.66152	
223	1.85833	-194.305	121.245	1.32538	-180.809	133.56	-27.6244	-183.699	138.248	-55.4429	-176.681	137.46	-85.9884	-229.626	96.9011	-71.0525	-211.211	102.769	-98.1374	-183.685	120.86	-81.6724	-222.512	73.2824	-80.205	-203.862	89.2541	-105.233	-173.578	105	-79.8913	-214.455	57.6166	-75.0053	-194.096	69.2561	-101.115	-170.697	82.2768	-86.4779	-194.177	43.959	-64.4986	-186.265	54.6108	-88.7851	-164.258	76.4746	-95.6148	-206.717	53.1792	-15.2714	-196.042	48.4122	16.0446	-213.717	81.1501	2.68714	
224	1.86667	-192.865	121.294	1.08816	-182.728	131.231	-31.4925	-181.283	144.094	-55.5066	-176.255	138.804	-85.2915	-232.872	101.586	-70.2149	-213.306	107.276	-97.7315	-186.356	124.031	-82.1936	-227.777	77.6196	-80.2288	-204.177	89.8231	-104.256	-176.911	105.848	-80.4113	-217.973	58.7517	-70.9129	-199.128	68.687	-101.089	-174.5	82.8443	-86.1364	-199.889	42.2078	-62.4366	-192.513	51.3138	-89.0076	-170.427	76.6125	-96.172	-208.615	53.2508	-12.6022	-200.271	52.7716	20.3807	-218.938	87.5618	3.66093	
225	1.875	-190.867	125.035	2.65229	-178.566	136.809	-27.7685	-178.528	139.758	-51.6144	-175.9	138.467	-85.8892	-233.244	106.279	-71.5178	-214.786	114.43	-97.0887	-184.531	119.934	-84.3957	-232.061	85.4317	-74.5112	-208.901	91.1467	-103.075	-178.918	103.573	-81.9096	-224.348	62.5525	-75.0668	-205.875	75.7265	-99.7478	-177.212	81.7981	-86.3505	-207.49	48.6685	-61.1494	-199.504	54.9372	-86.903	-174.512	74.9267	-95.8226	-215.015	57.8601	-11.0683	-202.311	57.1243	21.6624	-218.813	91.8926	5.26914	
226	1.88333	-188.611	126.232	2.92579	-175.802	131.695	-27.9811	-175.152	145.559	-54.2374	-173.203	139.691	-83.8669	-231.405	114.51	-67.658	-213.195	117.627	-96.3264	-182.143	123.888	-85.0843	-233.76	92.8222	-76.2196	-208.452	98.884	-102.481	-178.08	105.514	-79.8977	-228.325	72.9127	-74.1083	-207.494	76.6108	-99.0995	-177.236	85.174	-83.9619	-215.196	49.5355	-61.3752	-205.029	56.5483	-87.5178	-181.884	76.0188	-91.2618	-220.442	60.4306	-14.2443	-210.63	61.9265	19.9312	-219.746	94.3132	7.63725	
227	1.89167	-184.816	122.81	5.80392	-172.791	130.799	-25.2624	-170.906	140.62	-50.9176	-168.844	139.593	-79.714	-229.322	122.577	-65.3765	-214.158	124.362	-95.2901	-178.454	125.882	-83.1934	-234.849	103.097	-75.4687	-209.392	106.293	-102.368	-176.669	105.704	-80.7862	-232.986	76.9778	-75.8378	-209.864	83.5908	-100.054	-178.398	83.6374	-84.5612	-221.883	57.2836	-57.116	-214.778	61.1922	-85.1478	-183.852	73.4014	-91.0031	-228.925	71.7043	-12.9391	-215.94	63.9755	19.7336	-223.356	104.268	7.05703	
228	1.9	-182.021	122.444	7.25794	-167.394	127.459	-22.0202	-164.478	137.631	-48.2008	-159.946	142.178	-78.917	-226.01	128.961	-68.004	-209.663	128.147	-94.1971	-173.765	125.967	-82.9182	-234.675	111.078	-76.1618	-209.696	109.206	-101.176	-178.968	101.794	-81.8551	-236.16	83.7552	-71.8231	-213.221	89.6754	-99.4726	-184.871	84.9066	-88.5573	-230.498	62.167	-58.9963	-216.057	69.3814	-88.137	-186.263	76.9611	-81.0673	-233.525	75.1829	-12.4469	-224.088	69.7073	20.191	-221.197	107.754	9.4234	
